<?xml version="1.0" encoding="utf-8"?>
<!-- Generator: Adobe Illustrator 16.0.0, SVG Export Plug-In . SVG Version: 6.00 Build 0)  -->
<!DOCTYPE svg PUBLIC "-//W3C//DTD SVG 1.1//EN" "http://www.w3.org/Graphics/SVG/1.1/DTD/svg11.dtd">
<svg version="1.1" id="Capa_1" xmlns="http://www.w3.org/2000/svg" xmlns:xlink="http://www.w3.org/1999/xlink" x="0px" y="0px"
	 width="841.889px" height="595.281px" viewBox="0 0 841.889 595.281" enable-background="new 0 0 841.889 595.281"
	 xml:space="preserve">
<path fill="#00CCA9" d="M706.516,107.092L434.013,2.372c-8.421-3.163-17.703-3.163-26.125,0l-272.515,104.72
	c-7.259,2.724-12.068,9.664-12.068,17.417v42.914c0,10.278,8.324,18.603,18.603,18.603h558.075c10.277,0,18.602-8.325,18.602-18.603
	v-42.914C718.584,116.754,713.772,109.813,706.516,107.092z M197.715,223.23v186.025h-18.603c-10.278,0-18.603,8.324-18.603,18.602
	v55.809h520.87v-55.809c0-10.277-8.325-18.602-18.603-18.602h-18.603V223.23h-74.41v186.025H458.15V223.23h-74.41v186.025H272.124
	V223.23H197.715z M699.983,520.871H141.907c-10.278,0-18.603,8.324-18.603,18.602v37.205c0,10.279,8.324,18.604,18.603,18.604
	h558.075c10.277,0,18.602-8.324,18.602-18.604v-37.205C718.584,529.195,710.26,520.871,699.983,520.871z"/>
</svg>
