<?xml version="1.0" encoding="utf-8"?>
<!-- Generator: Adobe Illustrator 16.0.0, SVG Export Plug-In . SVG Version: 6.00 Build 0)  -->
<!DOCTYPE svg PUBLIC "-//W3C//DTD SVG 1.1//EN" "http://www.w3.org/Graphics/SVG/1.1/DTD/svg11.dtd">
<svg version="1.1" id="Capa_1" xmlns="http://www.w3.org/2000/svg" xmlns:xlink="http://www.w3.org/1999/xlink" x="0px" y="0px"
	 width="610.444px" height="595.281px" viewBox="231.445 0 610.444 595.281" enable-background="new 231.445 0 610.444 595.281"
	 xml:space="preserve">
<path fill-rule="evenodd" clip-rule="evenodd" fill="#00CCA9" d="M827.727,298.459c1.619,159.62-131.707,293.769-296.411,290.784
	c-156.272-2.819-289.511-133.415-285.111-299.394C250.312,134.808,380.432,2.56,546.27,7.487
	C702.323,12.117,829.218,141.553,827.727,298.459z M591.244,211c-0.895-4.529-0.847-7.539-2.054-9.904
	c-14.921-29.452-61.794-42.494-85.627-14.567c-9.381,10.988-16.891,24.979-20.905,38.861c-11.97,41.403-13,83.915-5.856,126.363
	c3.295,19.562,9.49,38.379,22.736,54.052c23.644,27.994,73.045,21.989,89.15-10.9c4.066-8.311,3.267-9.652-6.223-10.358
	c-13.278-0.976-20.865-7.537-23.644-20.429c-4.948-22.952,8.813-43.14,32.021-46.976c20.716-3.417,41.823,13.813,43.912,35.858
	c2.005,21.121-2.453,40.589-14.711,58.118c-1.287,1.83-2.094,3.986-3.13,5.992c0.744,0.719,1.483,1.437,2.224,2.155
	c2.346-1.572,5.016-2.806,6.981-4.759c36.427-36.264,72.732-72.679,109.194-108.916c5.41-5.382,6.135-9.816,0.34-15.564
	c-36.747-36.424-73.277-73.062-109.995-109.517c-1.863-1.857-4.785-2.658-7.804-4.257c-0.284,2.433-0.622,3.199-0.386,3.653
	c0.908,1.715,1.913,3.39,3.038,4.968c12.093,16.919,15.752,36.001,14.343,56.336c-1.152,16.608-10.074,27.766-25.026,34.109
	c-14.607,6.193-28.253,3.577-39.722-7.043c-12.065-11.164-15.512-25.351-10.317-40.901C564.408,213.547,575.389,209.189,591.244,211
	z M445.323,422.6c2.128-1.531,4.256-3.077,6.386-4.623c-1.546-3.226-3.038-6.479-4.664-9.665
	c-7.28-14.344-16.445-28.051-21.515-43.126c-10.568-31.424-10.887-64.07-7.714-96.95c2.69-27.873,10.134-53.828,26.055-77.064
	c1.832-2.677,4.218-5.016,5.729-7.843c0.909-1.694,0.625-4.02,0.875-6.067c-1.952,0.346-4.122,0.292-5.816,1.152
	c-1.653,0.841-2.859,2.604-4.229,3.979c-35.188,35.167-70.374,70.334-105.548,105.518c-9.226,9.219-9.28,10.059,0.02,19.387
	c34.435,34.516,68.978,68.937,103.285,103.589C441.31,414.06,442.978,418.669,445.323,422.6z"/>
</svg>
