<?xml version="1.0" encoding="utf-8"?>
<!-- Generator: Adobe Illustrator 16.0.0, SVG Export Plug-In . SVG Version: 6.00 Build 0)  -->
<!DOCTYPE svg PUBLIC "-//W3C//DTD SVG 1.1//EN" "http://www.w3.org/Graphics/SVG/1.1/DTD/svg11.dtd">
<svg version="1.1" id="Capa_1" xmlns="http://www.w3.org/2000/svg" xmlns:xlink="http://www.w3.org/1999/xlink" x="0px" y="0px"
	 width="717.398px" height="589.188px" viewBox="0 0 717.398 589.188" enable-background="new 0 0 717.398 589.188"
	 xml:space="preserve">
<path fill="#00CCA9" d="M351.073,4.613c-165.767,0-207.46,156.457-207.46,289.027c0,132.573,41.693,289.027,207.46,289.027
	c165.769,0,207.46-156.454,207.46-289.027C558.532,161.067,516.839,4.613,351.073,4.613L351.073,4.613z M351.073,113.707
	c6.681,0,12.954,1.012,18.62,2.429c11.941,10.322,17.813,24.49,6.273,44.325L265.662,363.267
	c-3.441-25.704-3.849-50.805-3.849-69.625C261.816,235.349,265.864,113.707,351.073,113.707L351.073,113.707z M433.653,207.215
	c5.87,31.169,6.679,63.554,6.679,86.425c0,58.495-4.047,179.933-89.256,179.933c-27.322,0-65.981-15.581-40.684-53.435
	L433.653,207.215L433.653,207.215z"/>
<g enable-background="new    ">
	<path fill="#00CCA9" d="M712.309,179.002l-1.946,2.781c-7.693,11.216-16.337,19.071-25.931,23.565
		c-9.593,4.495-19.952,6.743-31.075,6.743c-20.67,0-37.007-6.858-49.01-20.577c-12.005-13.717-18.238-32.58-18.7-56.588h-21.134
		l2.781-16.546h18.353v-13.903h-21.134l2.781-16.823h18.353c0.834-23.914,7.321-42.383,19.465-55.406
		c12.144-13.021,28.227-19.534,48.245-19.534c12.516,0,23.104,2.317,31.771,6.951c8.666,4.636,17.447,12.979,26.348,25.026
		l-43.38,31.562l-1.391-3.197c-1.576-3.429-3.223-5.979-4.938-7.647c-1.716-1.668-4.519-2.503-8.412-2.503
		c-9.084,0-13.625,5.794-13.625,17.38v7.369h37.818l-2.503,16.823h-35.315v13.625h37.818l-2.503,16.824h-35.315v9.314
		c0,11.588,4.541,17.38,13.625,17.38c3.521,0,6.396-0.904,8.621-2.712c2.227-1.809,4.401-5.723,6.535-11.748L712.309,179.002z"/>
</g>
</svg>
