<?xml version="1.0" encoding="utf-8"?>
<!-- Generator: Adobe Illustrator 16.0.0, SVG Export Plug-In . SVG Version: 6.00 Build 0)  -->
<!DOCTYPE svg PUBLIC "-//W3C//DTD SVG 1.1//EN" "http://www.w3.org/Graphics/SVG/1.1/DTD/svg11.dtd">
<svg version="1.1" id="Capa_1" focusable="false" xmlns="http://www.w3.org/2000/svg" xmlns:xlink="http://www.w3.org/1999/xlink"
	 x="0px" y="0px" width="841.889px" height="595.281px" viewBox="0 0 841.889 595.281" enable-background="new 0 0 841.889 595.281"
	 xml:space="preserve">
<path fill="#00CCA9" d="M123.305,471.224v49.646c0,41.041,99.988,74.41,223.229,74.41c123.242,0,223.23-33.369,223.23-74.41v-49.646
	c-48.018,33.834-135.799,49.646-223.23,49.646S171.323,505.058,123.305,471.224z M495.355,148.82
	c123.241,0,223.229-33.369,223.229-74.41C718.584,33.368,618.596,0,495.355,0s-223.23,33.368-223.23,74.41
	C272.124,115.452,372.114,148.82,495.355,148.82z M123.305,349.261v59.994c0,41.041,99.988,74.41,223.229,74.41
	c123.242,0,223.23-33.369,223.23-74.41v-59.994c-48.018,39.531-135.915,59.994-223.23,59.994S171.323,388.792,123.305,349.261z
	 M606.97,362.052c66.62-12.906,111.614-36.857,111.614-64.412v-49.646c-26.973,19.068-66.62,32.089-111.614,40.112V362.052z
	 M346.534,186.025c-123.241,0-223.229,41.624-223.229,93.013c0,51.39,99.988,93.013,223.229,93.013
	c123.242,0,223.23-41.623,223.23-93.013C569.765,227.648,469.777,186.025,346.534,186.025z M601.505,251.482
	c69.76-12.557,117.079-37.205,117.079-65.458V136.38c-41.273,29.183-112.196,44.878-186.839,48.599
	C566.044,201.604,591.274,223.928,601.505,251.482z"/>
</svg>
