<?xml version="1.0" encoding="UTF-8"?>
<svg width="70px" height="70px" viewBox="0 0 80 80" version="1.1" xmlns="http://www.w3.org/2000/svg" xmlns:xlink="http://www.w3.org/1999/xlink">
    <!-- Generator: Sketch 43.1 (39012) - http://www.bohemiancoding.com/sketch -->
    <title>Combined Shape</title>
    <desc>Created with Sketch.</desc>
    <defs>
        <linearGradient x1="0%" y1="0%" x2="97.7279974%" y2="97.7279974%" id="linearGradient-1">
            <stop stop-color="#00CCAB" offset="0%"></stop>
            <stop stop-color="#00CCCA" offset="100%"></stop>
        </linearGradient>
    </defs>
    <g id="08Login" stroke="none" stroke-width="1" fill="none" fill-rule="evenodd">
        <g id="1280_08Login_04Confirmación" transform="translate(-128.000000, -268.000000)" fill="url(#linearGradient-1)">
            <g id="confirmación" transform="translate(76.000000, 205.000000)">
                <path d="M91.8691793,142.973407 L91.8691793,143 C69.8863105,143 52,124.873737 52,102.59596 C52,83.4545455 65.4159788,66.8055556 83.8978352,63.0025253 L84.8870892,67.9520202 C68.7201371,71.2777778 56.9836474,85.8459596 56.9836474,102.59596 C56.9836474,112.411366 60.9505293,121.304966 67.3450007,127.716817 L67.4667497,127.593434 C79.1534029,139.434343 97.6178165,141.328283 111.370192,132.09596 L114.123657,136.305556 C107.448061,140.785354 99.8031459,142.974747 92.1956082,142.974747 L92.1956082,142.974747 C92.0867901,142.974747 91.9779795,142.9743 91.8691793,142.973405 Z M126.092553,94.6058471 C123.009341,81.4089223 112.492419,70.7571331 98.8462856,67.9494949 L99.8380315,63 C107.787601,64.6351567 114.807245,68.605411 120.243837,74.1057964 L120.323314,74.0252525 C125.641546,79.4138253 129.180201,86.0471232 130.855948,93.0851206 C131.604631,96.1598178 132,99.3583175 132,102.628788 L131.979012,102.628788 C131.983807,110.350255 129.822671,118.10775 125.394175,124.878788 L125.394175,124.878788 L121.237813,122.090909 C126.658852,113.800702 128.195675,103.823245 126.092551,94.6058372 Z M72.5714286,104.142857 L111.428571,104.142857 C111.428571,116.766509 102.730104,127 92,127 C81.2698963,127 72.5714286,116.766509 72.5714286,104.142857 Z M78.9237556,109.171456 C78.9237556,116.240701 86.0850668,121.971456 91.9866239,121.971456 C97.8881809,121.971456 105.343767,116.240701 105.343767,109.171456 L78.9237556,109.171456 Z M113.714286,92.7142857 L100,92.7142857 C100,92.7142857 100.348436,85.8571429 106.857143,85.8571429 C113.36585,85.8571429 113.714286,92.7142857 113.714286,92.7142857 Z M109.795918,92.7142857 L103.918367,92.7142857 C103.918367,92.7142857 104.067697,89.7755102 106.857143,89.7755102 C109.646589,89.7755102 109.795918,92.7142857 109.795918,92.7142857 Z M84,92.7142857 L70.2857143,92.7142857 C70.2857143,92.7142857 70.6341501,85.8571429 77.1428571,85.8571429 C83.6515642,85.8571429 84,92.7142857 84,92.7142857 Z M80.0816327,92.7142857 L74.2040816,92.7142857 C74.2040816,92.7142857 74.3534113,89.7755102 77.1428571,89.7755102 C79.932303,89.7755102 80.0816327,92.7142857 80.0816327,92.7142857 Z" id="Combined-Shape"></path>
            </g>
        </g>
    </g>
</svg>