<?xml version="1.0" encoding="utf-8"?>
<!-- Generator: Adobe Illustrator 16.0.0, SVG Export Plug-In . SVG Version: 6.00 Build 0)  -->
<!DOCTYPE svg PUBLIC "-//W3C//DTD SVG 1.1//EN" "http://www.w3.org/Graphics/SVG/1.1/DTD/svg11.dtd">
<svg version="1.1" id="Capa_1" xmlns="http://www.w3.org/2000/svg" xmlns:xlink="http://www.w3.org/1999/xlink" x="0px" y="0px"
	 width="70px" height="70px" viewBox="0 0 44.989 44.879" enable-background="new 0 0 44.989 44.879" xml:space="preserve">
<g id="_x31_7Contratacion">
	<g id="_x33_20_x5F_17Contratacion_x5F_02" transform="translate(-22.000000, -70.000000)">
		<g id="titulo-de-página" transform="translate(20.000000, 70.000000)">
		</g>
	</g>
</g>
<path id="Combined-Shape" fill="#FFAD00" d="M22.292,13.51c-0.715,0-1.297,0.582-1.297,1.298s0.582,1.298,1.297,1.298
	s1.297-0.582,1.297-1.298S23.004,13.51,22.292,13.51z M22.292,18.7c-2.146,0-3.893-1.746-3.893-3.893
	c0-2.146,1.746-3.892,3.893-3.892c2.146,0,3.892,1.746,3.892,3.892C26.183,16.954,24.437,18.7,22.292,18.7z M24.406,21.295v12.972
	h-4.292V21.295H24.406z M22.627,0.265V0.25c12.191,0,22.111,10.052,22.111,22.409c0,10.615-7.44,19.849-17.689,21.959l-0.55-2.745
	c8.967-1.845,15.476-9.924,15.476-19.214c0-5.443-2.2-10.376-5.746-13.932l-0.068,0.067c-6.481-6.567-16.723-7.618-24.349-2.497
	l-1.526-2.335c3.701-2.484,7.941-3.699,12.161-3.699l0,0C22.506,0.263,22.566,0.265,22.627,0.265z M3.645,27.089
	c1.71,7.32,7.543,13.229,15.111,14.784l-0.549,2.745c-4.41-0.907-8.303-3.109-11.317-6.159l-0.044,0.044
	c-2.95-2.988-4.913-6.667-5.843-10.57C0.589,26.229,0.37,24.454,0.37,22.64h0.012c-0.002-4.283,1.195-8.585,3.652-12.34l2.306,1.545
	C3.332,16.444,2.48,21.978,3.645,27.089L3.645,27.089z"/>
</svg>
