<?xml version="1.0" encoding="utf-8"?>
<!-- Generator: Adobe Illustrator 16.0.0, SVG Export Plug-In . SVG Version: 6.00 Build 0)  -->
<!DOCTYPE svg PUBLIC "-//W3C//DTD SVG 1.1//EN" "http://www.w3.org/Graphics/SVG/1.1/DTD/svg11.dtd">
<svg version="1.1" id="Capa_1" xmlns="http://www.w3.org/2000/svg" xmlns:xlink="http://www.w3.org/1999/xlink" x="0px" y="0px"
	 width="238px" height="240px" viewBox="0 0 238 240" enable-background="new 0 0 238 240" xml:space="preserve">
<g>
	<path fill="#999999" stroke="#FFFFFF" stroke-miterlimit="10" d="M144.662,10.083c57.537,13.162,96.01,71.074,85.027,129.147
		c-4.23,22.367-13.922,41.748-29.451,58.213c-18.742,19.875-42.313,30.855-68.971,34.365c-10.613,1.396-21.96,0.273-32.563-1.806
		c-43.86-8.604-72.736-34.827-87.231-76.946c-6.662-19.287-5.582-37.756-3.194-52.792c9.317-45.83,36.668-75.239,81.081-89.094
		C102.763,6.419,132.376,6.71,144.662,10.083z M119.228,20.983c-54.062-1.07-99.014,44.569-99.18,98.321
		c-0.167,54.036,44.745,99.014,98.521,99.178c54.072,0.164,99.007-44.771,99.176-98.518
		C217.916,65.925,173.002,20.242,119.228,20.983z"/>
	<path fill="#999999" stroke="#FFFFFF" stroke-miterlimit="10" d="M76.691,57.14c6.996,12.119,14.006,24.263,21.139,36.62
		c-7.771,6.328-7.447,14.466-5.522,22.854c2.942,12.823,9.157,23.774,19.219,32.391c5.939,5.088,12.538,7.269,20.476,3.958
		c7.104,12.292,14.138,24.464,21.164,36.624c-10.987,8.406-21.237,8.916-32.545,1.127c-15.324-10.557-26.744-24.764-36.577-40.344
		c-11.679-18.507-21.178-38.021-24.102-59.924C57.86,74.853,58.315,66.101,76.691,57.14z"/>
	<path fill="#999999" stroke="#FFFFFF" stroke-miterlimit="10" d="M133.732,148.59c1.438-1.473,2.731-3.729,4.65-4.58
		c4.422-1.96,7.758-7.382,13.635-4.912c1.203,0.504,2.127,2.02,2.852,3.258c6.088,10.422,12.117,20.877,18.125,31.347
		c2.607,4.545,2.064,6.711-2.354,9.43c-2.537,1.562-5.23,2.872-7.74,4.476c-3.736,2.388-6.518,1.563-8.668-2.176
		c-6.271-10.892-12.572-21.767-18.826-32.668C134.85,151.79,134.557,150.669,133.732,148.59z"/>
	<path fill="#999999" stroke="#FFFFFF" stroke-miterlimit="10" d="M94.78,42.841c2.019,1.744,4.174,2.869,5.239,4.647
		c6.045,10.09,11.855,20.32,17.69,30.534c3.068,5.372,2.536,7.126-2.89,10.345c-1.712,1.016-3.432,2.02-5.158,3.009
		c-6.366,3.649-7.836,3.277-11.401-2.906c-5.794-10.045-11.583-20.092-17.365-30.144c-2.759-4.796-2.229-6.916,2.644-9.65
		C86.92,46.778,90.422,45.092,94.78,42.841z"/>
</g>
</svg>
