<?xml version="1.0" encoding="utf-8"?>
<!-- Generator: Adobe Illustrator 16.0.0, SVG Export Plug-In . SVG Version: 6.00 Build 0)  -->
<!DOCTYPE svg PUBLIC "-//W3C//DTD SVG 1.1//EN" "http://www.w3.org/Graphics/SVG/1.1/DTD/svg11.dtd">
<svg version="1.1" id="Capa_1" xmlns="http://www.w3.org/2000/svg" xmlns:xlink="http://www.w3.org/1999/xlink" x="0px" y="0px"
	 width="70px" height="70px" viewBox="0 0 45 45" enable-background="new 0 0 45 45" xml:space="preserve">
<title>icono</title>
<desc>Created with Sketch.</desc>
<g id="_x31_7Contratacion">
	<g id="_x31_280_x5F_17Contratacion_x5F_11" transform="translate(-76.000000, -109.000000)">
		<g id="aviso" transform="translate(0.000000, 80.000000)">
			<g id="icono" transform="translate(76.000000, 29.000000)">
				<path fill="#FFAD00" d="M15.231,33.283c0.063-3.933,3.819-7.396,7.554-7.391c3.32,0.005,7.354,3.446,7.698,7.399l2.873-0.021
					c-0.197-5.051-4.412-10.206-10.578-10.206c-6.089,0-10.677,5.155-10.677,10.311"/>
				<path fill="#FFAD00" d="M33.395,38.866C25.66,44.061,15.274,42.994,8.7,36.334l-0.069,0.068
					c-3.597-3.606-5.828-8.609-5.828-14.13c0-9.421,6.602-17.616,15.696-19.487l-0.557-2.784C7.546,2.141,0,11.506,0,22.272
					C0,34.805,10.061,45,22.426,45v-0.016c0.062,0,0.123,0.002,0.184,0.002c4.279,0,8.58-1.232,12.333-3.752L33.395,38.866z"/>
				<path fill="#FFAD00" d="M30.857,15.061c1.568,0,1.652,1.653,1.652,1.653h2.205c0,0-0.197-3.857-3.857-3.857
					c-3.662,0-3.857,3.857-3.857,3.857h2.205C29.205,16.714,29.289,15.061,30.857,15.061z"/>
				<path fill="#FFAD00" d="M44.357,16.923c-0.943-3.959-2.934-7.69-5.926-10.721l-0.045,0.045C35.329,3.153,31.381,0.92,26.908,0
					l-0.557,2.784c7.676,1.579,13.592,7.571,15.326,14.994c1.182,5.185,0.318,10.797-2.732,15.461l2.339,1.567
					c2.491-3.809,3.706-8.172,3.704-12.516H45C45,20.452,44.777,18.652,44.357,16.923z"/>
				<path fill="#FFAD00" d="M14.143,15.061c1.569,0,1.653,1.653,1.653,1.653H18c0,0-0.196-3.857-3.857-3.857
					s-3.857,3.857-3.857,3.857h2.204C12.49,16.714,12.574,15.061,14.143,15.061z"/>
			</g>
		</g>
	</g>
</g>
</svg>
