<svg width="300px" height="300px" viewBox="0 0 24 24" version="1.1" xmlns="http://www.w3.org/2000/svg" xmlns:xlink="http://www.w3.org/1999/xlink" fill="#00cca9">
    <path d="M16.5952898,9.34446867 C16.7474608,9.49868438 16.7464826,9.74772391 16.5931052,9.90072688 L10.9657145,15.5122778 C10.8123046,15.6652808 10.5645662,15.6642647 10.4123952,15.510049 L7.45241428,12.5104304 C7.30021072,12.3561819 7.3012215,12.1071424 7.45463147,11.9541722 L8.1954011,11.2155101 C8.34881107,11.0625399 8.59654942,11.063556 8.74872037,11.2177717 L10.6982823,13.19347 L15.3071678,8.59761228 C15.4605777,8.44460932 15.7083161,8.4456254 15.860487,8.59984112 L16.5952898,9.34446867 Z" id="path-1" ></path>
    <path d="M11.7610051,21.9978985 L11.6967801,20.0715007 C11.7961663,20.0751052 11.8960132,20.0769231 11.9962895,20.0769231 C16.4594955,20.0769231 20.0709098,16.4760819 20.0709098,12.0274725 C20.0709098,7.57817898 16.4588092,3.97802198 11.9962895,3.97802198 C11.8940324,3.97802198 11.7922224,3.97991213 11.6908927,3.98365933 L11.756954,2.00218429 C11.8273704,2.00073048 11.8979651,2 11.968731,2 C17.5088634,2 22,6.4771371 22,12 C22,17.5228629 17.5088634,22 11.968731,22 C11.8993222,22 11.8300779,21.9992973 11.7610051,21.9978985 Z M9.35578134,21.6573729 C8.55274428,21.4419842 7.78954166,21.1297098 7.07956219,20.7338968 L7.93696248,18.9889066 C8.50314557,19.3174452 9.11315816,19.5793008 9.75620709,19.7637218 L9.35578134,21.6573729 Z M5.17212593,19.3549236 C4.51271423,18.7490543 3.93497665,18.0561791 3.45724451,17.2945722 L5.08894169,16.2013885 C5.46063746,16.8118159 5.91147763,17.3689187 6.42731413,17.8586034 L5.17212593,19.3549236 Z M2.46711015,15.2149066 C2.23961448,14.5465137 2.08109428,13.8463738 2,13.1229112 L3.96689985,12.8855087 C4.02746397,13.4565289 4.14780094,14.0096396 4.32156366,14.5385184 L2.46711015,15.2149066 Z M2.00549774,10.8290906 C2.09269964,10.083716 2.26212548,9.36336789 2.50449366,8.67729905 L4.37495011,9.3595241 C4.18333326,9.90427102 4.04877632,10.4758726 3.97840658,11.0672183 L2.00549774,10.8290906 Z M3.51129833,6.62021256 C3.99243831,5.87009204 4.57124594,5.18823266 5.22984531,4.59245459 L6.5101871,6.1187606 C5.99542606,6.59390649 5.54297927,7.13515725 5.16634923,7.72904243 L3.51129833,6.62021256 Z M7.12646051,3.24012161 C7.830298,2.85265362 8.58581228,2.5470346 9.38008688,2.33614073 L9.79138389,4.28120307 C9.16094058,4.45890131 8.56196249,4.71093572 8.0045537,5.02722617 L7.12646051,3.24012161 Z" id="path-1">
      <animateTransform attributeType="xml"
      attributeName="transform"
      type="rotate"
      from="0 12 12"
      to="360 12 12"
      dur="3s"
      repeatCount="indefinite"/>
    </path>
</svg>
