<?xml version="1.0" encoding="UTF-8"?>
<svg width="78px" height="70px" viewBox="0 0 48 42" version="1.1" xmlns="http://www.w3.org/2000/svg" xmlns:xlink="http://www.w3.org/1999/xlink">
    <!-- Generator: Sketch 44.1 (41455) - http://www.bohemiancoding.com/sketch -->
    <title>Combined Shape</title>
    <desc>Created with Sketch.</desc>
    <defs></defs>
    <g id="17Contratacion" stroke="none" stroke-width="1" fill="none" fill-rule="evenodd">
        <g id="320_17Contratacion_02" transform="translate(-22.000000, -70.000000)" fill="#FFAD00">
            <g id="titulo-de-página" transform="translate(20.000000, 70.000000)">
                <g id="icono" transform="translate(2.000000, 0.000000)">
                    <path d="M23.8562595,33.5364324 C24.5710703,33.5364324 25.1535568,32.9552432 25.1535568,32.2391351 C25.1535568,31.523027 24.5710703,30.9418378 23.8562595,30.9418378 C23.1414486,30.9418378 22.5589622,31.523027 22.5589622,32.2391351 C22.5589622,32.9552432 23.1414486,33.5364324 23.8562595,33.5364324 Z M23.8562595,28.3472432 C26.0019892,28.3472432 27.7481514,30.0934054 27.7481514,32.2391351 C27.7481514,34.3848649 26.0019892,36.131027 23.8562595,36.131027 C21.7105297,36.131027 19.9643676,34.3848649 19.9643676,32.2391351 C19.9643676,30.0934054 21.7105297,28.3472432 23.8562595,28.3472432 Z M22.5587027,25.7526486 L22.5587027,12.7796757 L25.1532973,12.7796757 L25.1532973,25.7526486 L22.5587027,25.7526486 Z M23.8562595,0 L47.7122595,41.3202162 L44.6999351,41.3202162 L0.000259459459,41.3202162 L1.49863784,38.7256216 L20.511827,5.81578378 L22.0102054,8.41037838 L4.4940973,38.7256216 L40.2073946,38.7256216 L43.2028541,38.7256216 L43.2184216,38.7256216 L22.3500973,2.60886486 L23.8562595,0 Z" id="Combined-Shape"></path>
                </g>
            </g>
        </g>
    </g>
</svg>